<?xml version="1.0" encoding="UTF-8"?>
<svg version="1.1" xmlns="http://www.w3.org/2000/svg" width="2224" height="1668">
<path d="M0 0 C3.54733131 0.05278924 7.09487728 0.07358489 10.64249997 0.09758055 C15.88027063 0.13551661 21.11781429 0.1823663 26.35539168 0.24128076 C35.90441843 0.34865651 45.45269549 0.39717759 55.00228028 0.41483366 C55.71824157 0.41623195 56.43420286 0.41763024 57.17185994 0.4190709 C60.08321826 0.42470826 62.99457675 0.43016773 65.90593619 0.43519893 C74.1621602 0.44990802 82.41832442 0.47938162 90.67450623 0.50894988 C93.00107671 0.51714129 95.32764733 0.52528795 97.65421797 0.53343341 C99.22849464 0.53894819 100.80277126 0.54447802 102.37704783 0.55002263 C110.66209678 0.57915129 118.94715111 0.60661471 127.23220602 0.63398725 C142.11860978 0.68318057 157.00501101 0.73309188 171.89140992 0.78373015 C173.21032458 0.78821607 173.21032458 0.78821607 174.55588398 0.79279262 C184.31152541 0.82598976 194.06716623 0.85936049 203.8228064 0.89292204 C222.97964967 0.95881318 242.13649468 1.02404413 261.29334776 1.08702624 C269.7665755 1.11490788 278.23980109 1.14325954 286.71302323 1.17279875 C319.11539626 1.28549305 351.51690895 1.38358448 383.91948609 1.31742156 C386.27638746 1.31330183 388.63328894 1.30924923 390.99019055 1.30526793 C400.532225 1.2882071 410.07411514 1.26753059 419.61604933 1.21940196 C423.28900459 1.20259334 426.96195006 1.19355244 430.63493566 1.18648207 C432.28764884 1.18143269 433.94035605 1.17283975 435.59302883 1.16022933 C443.54719685 1.10009426 450.94065475 1.24093981 458.65825562 3.35648406 C460.59278077 3.5060481 462.53117386 3.61626295 464.47075562 3.66898406 C470.10892434 4.07527434 474.4557526 5.66119348 479.57231812 7.98929656 C482.6458512 9.35098843 485.71873143 10.42345787 488.90825562 11.48148406 C505.03434688 17.20364547 520.83971909 23.82524044 533.65825562 35.35648406 C534.67226111 36.24747044 535.68658901 37.13809002 536.70122437 38.02835906 C541.1584996 42.00869995 545.44900335 46.11553561 549.65825562 50.35648406 C550.70991968 51.4089865 551.76202705 52.46104611 552.81450562 53.51273406 C555.04367229 55.74190072 557.27283896 57.97106739 559.50200562 60.20023406 C560.30396363 61.00098357 560.30396363 61.00098357 561.12212281 61.81790984 C562.53060666 63.22863222 563.93079325 64.64762604 565.33013062 66.06742156 C567.29170007 67.99607877 569.28027994 69.74454664 571.40825562 71.48148406 C576.49789392 75.89058691 580.51598128 81.07358344 584.65825562 86.35648406 C585.26669312 87.09898406 585.87513062 87.84148406 586.50200562 88.60648406 C595.18307734 99.33944546 602.30663644 111.64638849 607.65825562 124.35648406 C608.91229005 126.79243592 610.18053199 129.21892501 611.47466187 131.63382781 C612.6670223 134.37665032 613.39576064 137.07750458 614.07549195 139.98465788 C614.75410828 142.74660076 615.54777556 145.4637351 616.34966187 148.19242156 C616.65452515 149.25847624 616.95938843 150.32453093 617.27349 151.42289031 C617.89497269 153.59359481 618.52996049 155.76048762 619.17974 157.92289031 C620.86755622 163.92162567 621.93411753 169.74500794 622.23709778 175.96683562 C622.29611509 177.11416387 622.29611509 177.11416387 622.35632466 178.28467047 C622.89656698 190.05782816 622.88015588 201.84875658 622.94340722 213.63191426 C622.96403483 217.29119363 622.98984274 220.95043739 623.01492982 224.6096884 C623.06336607 231.79638121 623.10700045 238.98309538 623.14887296 246.16982913 C623.1835226 252.10241904 623.21992922 258.03499591 623.25749688 263.96756804 C623.26561973 265.25090179 623.26561973 265.25090179 623.27390667 266.56016147 C623.28493607 268.30182741 623.29596855 270.04349333 623.30700407 271.78515923 C623.41050719 288.15422928 623.508476 304.52332895 623.60459856 320.89244378 C623.68488282 334.54227104 623.76991567 348.19206107 623.85869507 361.84183562 C624.16628534 409.23058118 624.42549631 456.61933942 624.62286859 504.00867701 C624.65054692 510.61786496 624.68007102 517.22704328 624.71021943 523.83622038 C624.80531653 544.82588502 624.8856861 565.81547847 624.92864965 586.80532134 C624.9472617 595.79013452 624.97172609 604.77482344 625.01386361 613.75956023 C625.04916825 621.3064719 625.07046985 628.853261 625.07359698 636.40025747 C625.07555732 640.23256778 625.08373547 644.064576 625.1096838 647.89680541 C625.22621806 665.89124734 624.73243454 681.52631673 617.52544312 698.25882781 C616.51941614 700.57099044 616.51941614 700.57099044 615.65825562 703.98148406 C614.66187626 707.34426439 613.33747704 710.11898639 611.70903687 713.20414031 C610.60618162 715.46314864 609.80167895 717.73512752 608.97075562 720.10648406 C606.85693123 725.57067835 603.48816235 729.70028937 599.88872437 734.27445281 C597.71346735 737.28019324 596.15363082 740.18494905 594.59575562 743.54398406 C591.32886489 750.47705216 586.66655506 755.38744464 581.26372437 760.71976531 C578.93445863 763.07696827 576.71872652 765.49187077 574.51128297 767.9607321 C569.46287423 773.58202766 564.27836453 778.50291458 558.31450562 783.17289031 C555.53139359 785.4607721 553.04683667 787.90196029 550.53325562 790.48148406 C541.53948473 799.58767709 532.11784824 804.95925457 520.65825562 810.35648406 C519.90254273 810.71452116 519.14682984 811.07255827 518.36821656 811.44144499 C514.07875163 813.47291528 509.78182605 815.48754624 505.47807984 817.48856413 C503.7488991 818.3132539 502.04624731 819.19290346 500.34575562 820.07523406 C497.51087421 821.42674729 495.75448638 821.62968089 492.65825562 821.35648406 C492.32825562 822.34648406 491.99825562 823.33648406 491.65825562 824.35648406 C483.70716674 828.88358426 474.65243539 830.77352024 465.78325562 832.60648406 C464.00821656 832.98933562 464.00821656 832.98933562 462.19731812 833.37992156 C448.13177071 836.38944183 448.13177071 836.38944183 442.02153687 836.63773406 C441.1971814 836.67511687 440.37282593 836.71249968 439.52349 836.75101531 C437.80996823 836.82181116 436.09642616 836.89211711 434.382865 836.96195281 C433.15213257 837.01802702 433.15213257 837.01802702 431.89653687 837.07523406 C431.1544397 837.10552702 430.41234254 837.13581999 429.64775757 837.16703093 C427.44957378 837.30111645 427.44957378 837.30111645 424.65825562 838.35648406 C422.17786471 838.45085327 419.7259977 838.4886363 417.24567799 838.47953188 C416.0983009 838.48126265 416.0983009 838.48126265 414.92774446 838.48302838 C412.34373749 838.48569238 409.75979182 838.48117464 407.17578797 838.47673857 C405.31291369 838.47717432 403.45003947 838.47804929 401.58716558 838.47932774 C396.45182606 838.48157203 391.31650726 838.47755229 386.18117039 838.47254968 C380.6494741 838.46824444 375.11777904 838.46969165 369.58608155 838.47045195 C359.99661962 838.47097714 350.40716447 838.46783087 340.81770425 838.46221411 C326.95283232 838.45409842 313.08796369 838.45148382 299.22308964 838.45022612 C276.73004085 838.44803571 254.23699562 838.44138449 231.74394898 838.43192351 C209.88978251 838.42274185 188.035617 838.41565688 166.18144898 838.4114157 C165.50802434 838.41128417 164.83459971 838.41115264 164.14076826 838.41101713 C157.37807376 838.40969863 150.61537926 838.40842282 143.85268474 838.40717827 C87.12120583 838.39673394 30.38973091 838.37908469 -26.34174438 838.35648406 C-26.34174438 838.68648406 -26.34174438 839.01648406 -26.34174438 839.35648406 C-31.29174438 839.02648406 -36.24174438 838.69648406 -41.34174438 838.35648406 C-41.34174438 837.69648406 -41.34174438 837.03648406 -41.34174438 836.35648406 C-42.47483032 836.23789031 -43.60791625 836.11929656 -44.77533813 835.99710906 C-49.4322651 835.41179545 -53.87813629 834.32860796 -58.40424438 833.10648406 C-59.2327893 832.88468474 -60.06133422 832.66288542 -60.91498657 832.43436491 C-68.50053248 830.37028567 -75.94256102 828.02019006 -83.34174438 825.35648406 C-84.58568969 824.91691374 -85.829635 824.47734343 -87.11127563 824.02445281 C-100.44480129 819.12960701 -111.50199398 811.49187118 -122.34174438 802.35648406 C-124.29901251 800.7093841 -126.25740072 799.06361448 -128.21674438 797.41898406 C-129.22350219 796.57078093 -130.23026 795.72257781 -131.26752563 794.84867156 C-134.23427137 792.44360957 -137.28577936 790.24667733 -140.40424438 788.04398406 C-147.18587673 783.02415959 -152.1561592 776.93410543 -157.34174438 770.35648406 C-161.96043893 764.55370992 -166.57754255 759.02931967 -171.90424438 753.85648406 C-185.668215 740.26528294 -191.81854478 724.54884764 -197.65424438 706.54398406 C-197.87320373 705.87081145 -198.09216308 705.19763884 -198.31775756 704.50406706 C-200.55351716 697.58825766 -202.61231891 690.72944919 -203.9049768 683.5676657 C-204.46807127 680.71694092 -205.29817893 677.98705808 -206.16216846 675.21536791 C-208.26360786 668.30757229 -209.80352772 661.53624453 -210.48359008 654.34403288 C-210.60664378 653.06044622 -210.60664378 653.06044622 -210.73218341 651.75092852 C-211.70912186 640.49187661 -211.60755854 629.22263965 -211.57221313 617.93070281 C-211.57138867 615.29215495 -211.57132945 612.65361567 -211.57206054 610.01506865 C-211.57188258 603.39027953 -211.56008109 596.76555493 -211.54457898 590.14078587 C-211.5318136 584.58260016 -211.5235215 579.0244227 -211.51798339 573.46622527 C-211.49276239 548.66533315 -211.43624735 523.86455968 -211.37187983 499.06374121 C-211.34846319 490.03155987 -211.3259492 480.99937663 -211.30381841 471.96719206 C-211.19820473 428.90020453 -211.08001934 385.8332627 -210.95075239 342.76633972 C-210.92464161 334.05299048 -210.89903491 325.3396402 -210.87457748 316.62628615 C-210.87215339 315.76296224 -210.86972931 314.89963834 -210.86723177 314.0101531 C-210.86481148 313.14795601 -210.8623912 312.28575893 -210.85989757 311.39743465 C-210.81267639 294.57744419 -210.7622204 277.75746972 -210.70516677 260.93750948 C-210.67863363 253.09531595 -210.65354134 245.25312476 -210.63261886 237.41091406 C-210.61501167 230.8156115 -210.59414765 224.22032933 -210.56905716 217.62505081 C-210.5564454 214.2860305 -210.54580257 210.94703679 -210.53832848 207.60799885 C-210.49601747 189.2929449 -210.25606663 171.43420442 -206.92255493 153.37992156 C-206.52354141 151.20033189 -206.14998879 149.01727265 -205.77729125 146.83304656 C-205.5229414 145.42131542 -205.26713672 144.00984544 -205.00971313 142.59867156 C-204.78565795 141.34940886 -204.56160278 140.10014616 -204.33075805 138.81302702 C-203.24991359 135.035541 -201.62789187 132.52574865 -199.34174438 129.35648406 C-198.5109525 127.33847225 -197.74026689 125.29474211 -197.02924438 123.23148406 C-194.51371345 116.4356805 -191.09802296 110.52689064 -187.34174438 104.35648406 C-186.52117222 102.86088465 -185.70801241 101.3611811 -184.90424438 99.85648406 C-176.23637556 84.28228105 -165.4677935 71.22435776 -151.34174438 60.35648406 C-146.99447435 56.74429787 -142.91808531 52.96012819 -138.96674438 48.91898406 C-134.40161367 44.29894628 -129.48175161 40.31370553 -124.34174438 36.35648406 C-123.70277221 35.825632 -123.06380004 35.29477995 -122.40546508 34.74784148 C-116.80095601 30.17929292 -111.08327032 26.93771994 -104.52924438 23.91898406 C-103.53094604 23.45089324 -102.5326477 22.98280241 -101.50409789 22.50052702 C-91.93508467 18.06634643 -82.21436663 14.06028775 -72.34174438 10.35648406 C-71.33427392 9.96826995 -70.32680346 9.58005584 -69.28880359 9.18007767 C-61.04527592 6.09703969 -53.0651312 3.98138854 -44.36541076 2.5643698 C-43.07195942 2.35315474 -41.77850807 2.14193967 -40.44586124 1.92432415 C-26.98225457 -0.15447057 -13.60425364 -0.22698215 0 0 Z " fill="#9EAEE8" transform="translate(922.3417443782091,423.6435159444809)"/>
<path d="M0 0 C0.74701172 -0.020625 1.49402344 -0.04125 2.26367188 -0.0625 C8.13649611 -0.10374898 12.34056897 1.04530721 16.75 5.1875 C17.389375 5.868125 18.02875 6.54875 18.6875 7.25 C19.574375 7.86875 20.46125 8.4875 21.375 9.125 C24.41964367 11.92278067 24.28015659 13.12784059 24.6875 17.25 C24.79247817 21.23700631 24.75572329 25.21917876 24.71484375 29.20703125 C24.70216965 31.62564947 24.68981085 34.04426935 24.67773438 36.46289062 C24.65323139 40.2312558 24.62556841 43.99953056 24.59155273 47.76782227 C24.47259903 61.85400139 24.5868241 75.76886297 26.06712341 89.79121399 C26.54418636 94.59049968 26.70171515 99.08821043 26.21611881 103.89380264 C25.68552856 109.8005614 25.54956744 115.6361087 25.56724548 121.56365967 C25.56639106 122.63563638 25.56553663 123.70761309 25.56465632 124.81207395 C25.56302244 128.36789758 25.56848831 131.92367297 25.57397461 135.47949219 C25.57425696 138.04280598 25.57409781 140.60611985 25.5735321 143.16943359 C25.57330513 148.66952873 25.57612291 154.16960862 25.58176994 159.66970062 C25.58992905 167.62171268 25.59250467 175.57371902 25.59375793 183.52573481 C25.59594155 196.43024575 25.60258286 209.33475032 25.61206055 222.23925781 C25.62125257 234.76790332 25.62832463 247.2965471 25.63256836 259.82519531 C25.63283108 260.59866148 25.63309381 261.37212765 25.63336449 262.16903219 C25.63466962 266.04964309 25.6359333 269.930254 25.63717639 273.81086493 C25.64752749 305.9572479 25.66512695 338.10362306 25.6875 370.25 C27.40590591 370.0721698 27.40590591 370.0721698 29.1590271 369.89074707 C33.46689263 369.44601179 37.77527992 369.00651324 42.08383179 368.56848145 C43.93777533 368.37928589 45.79158038 368.18872759 47.64523315 367.9967041 C57.86220511 366.93926491 68.03325073 365.91998857 78.3125 365.75 C79.49863892 365.72196289 79.49863892 365.72196289 80.70874023 365.69335938 C85.78483999 365.75180224 88.84397482 366.93847131 92.6875 370.25 C93.70430234 375.89890188 92.00479321 382.03370623 89.6875 387.25 C88.6975 387.91 87.7075 388.57 86.6875 389.25 C85.54889396 392.11148188 85.54889396 392.11148188 84.6875 395.4375 C83.30099828 400.22723322 81.74728727 404.70130312 79.6875 409.25 C79.06441733 410.7783355 78.44927314 412.3099191 77.83984375 413.84375 C77.48712402 414.72957764 77.1344043 415.61540527 76.77099609 416.52807617 C76.41344238 417.42631104 76.05588867 418.3245459 75.6875 419.25 C75.03313085 420.88174263 74.37819729 422.51325906 73.72265625 424.14453125 C69.29711416 435.17205881 69.29711416 435.17205881 65 446.25 C63.09792294 451.23344191 61.07657464 456.15634432 59.01171875 461.07421875 C53.8112278 473.54499756 53.8112278 473.54499756 49.328125 486.28515625 C48.68609358 488.2543136 47.98274587 490.18790056 47.25 492.125 C47.00507812 492.77339844 46.76015625 493.42179687 46.5078125 494.08984375 C45.90120231 495.68725058 45.29133023 497.28341959 44.6796875 498.87890625 C43.05986439 503.1924352 41.58927059 507.33818821 40.75 511.875 C38.71678548 521.57584556 31.91721769 530.89575522 23.83203125 536.546875 C18.81720412 538.97969732 13.53144306 538.88988719 8.1875 537.6875 C4.26568595 535.43245692 0.8041686 532.52907565 -2.3125 529.25 C-2.3125 528.59 -2.3125 527.93 -2.3125 527.25 C-2.92867187 527.15847656 -3.54484375 527.06695313 -4.1796875 526.97265625 C-6.3125 526.25 -6.3125 526.25 -7.4453125 524.74609375 C-7.77273438 524.06675781 -8.10015625 523.38742187 -8.4375 522.6875 C-10.75742661 518.18997356 -13.34697523 513.9514407 -16.0625 509.6875 C-19.97377872 503.50329315 -23.64891857 497.22213927 -27.20043945 490.82543945 C-29.15700705 487.30170766 -31.14734369 483.81463945 -33.25 480.375 C-36.04541413 475.77809677 -38.64817876 471.08303445 -41.25 466.375 C-46.90842931 456.14278742 -52.78288958 446.080687 -58.94140625 436.140625 C-62.57661609 430.21846815 -66.06656972 424.20828051 -69.58203125 418.21459961 C-72.42919573 413.37617441 -75.33128074 408.61331626 -78.4375 403.9375 C-82.48410602 397.66174625 -85.50502059 390.85231879 -84.3125 383.25 C-81.01328687 379.76226041 -77.14330675 377.3794525 -72.25708008 377.15600586 C-69.60747535 377.19972692 -66.9609641 377.2859236 -64.3125 377.375 C-51.30568312 377.62328092 -38.5906993 376.18895791 -25.69335938 374.67236328 C-24.91131638 374.58060822 -24.12927338 374.48885315 -23.3235321 374.39431763 C-21.85093585 374.21981714 -20.37874202 374.04187227 -18.90705872 373.85983276 C-15.34729131 373.43038027 -11.89489501 373.21387896 -8.3125 373.25 C-8.19579973 344.63469626 -8.107577 316.01942809 -8.05343914 287.40393448 C-8.02763603 274.1178298 -7.99244515 260.83190685 -7.93530273 247.54589844 C-7.88553247 235.96846602 -7.85322432 224.39114054 -7.84205753 212.81360412 C-7.83552802 206.68094255 -7.82013774 200.54858695 -7.78384972 194.41602325 C-7.74999126 188.64748393 -7.73942662 182.87937754 -7.74696159 177.11074829 C-7.74558251 174.99027913 -7.73559001 172.86979596 -7.71647263 170.74941254 C-7.69169353 167.8600943 -7.69753958 164.97242304 -7.71122742 162.08306885 C-7.69666321 161.23871159 -7.682099 160.39435433 -7.66709346 159.52441049 C-7.71802967 155.56263054 -7.88589556 153.6989304 -10.66526508 150.77410507 C-23.2444823 143.53181288 -37.13412748 147.86568325 -50.32861328 150.96582031 C-57.66536863 152.6879099 -64.82640514 154.04045461 -72.31640625 154.890625 C-75.02969867 155.21607859 -77.64205434 155.6786891 -80.3125 156.25 C-84.07565539 157.05248225 -87.80271089 157.5591362 -91.625 158 C-99.4288061 158.98540932 -107.05978233 160.6113094 -114.75 162.25 C-123.67845498 164.15003115 -132.44428198 165.80518162 -141.5234375 166.7578125 C-146.0774215 167.34936094 -150.51208853 168.28950669 -155 169.25 C-161.93188818 170.72175261 -168.74990473 171.68365672 -175.8125 172.25 C-183.62405196 172.87985914 -191.12253745 174.07562172 -198.78198242 175.71655273 C-204.87074272 177.00719967 -210.9576429 177.97978138 -217.125 178.8125 C-224.43920362 179.80164749 -231.60909874 181.04223299 -238.83203125 182.5703125 C-242.35988608 183.25925385 -245.87160681 183.74029227 -249.4375 184.1875 C-256.34717219 185.1265268 -262.73803546 186.96205017 -269.3125 189.25 C-270.01246094 189.46269531 -270.71242188 189.67539062 -271.43359375 189.89453125 C-277.70674783 192.06009669 -281.34290405 197.28785705 -284.87936401 202.60646057 C-286.98869887 207.96913711 -286.79034424 213.06082327 -286.82080078 218.77709961 C-286.8391567 220.04930925 -286.85751263 221.3215189 -286.87642479 222.63228035 C-286.92671379 226.14768708 -286.95876564 229.66305621 -286.98768425 233.17869496 C-287.02183594 236.95156979 -287.07270262 240.7242238 -287.12145996 244.49693298 C-287.21368179 251.84088517 -287.29017121 259.1849207 -287.36127734 266.52910441 C-287.4444071 275.05183183 -287.54376185 283.57434821 -287.64332271 292.09689665 C-287.88615931 312.97964858 -288.09274012 333.86271028 -288.28894043 354.74594593 C-288.31214025 357.21176322 -288.33548939 359.67757905 -288.35888672 362.14339447 C-288.65227052 393.08881386 -288.92123706 424.03444781 -289.13833237 454.98050499 C-289.16353014 458.480737 -289.19117811 461.9809436 -289.21902466 465.4811554 C-289.29170281 475.23333226 -289.3305371 484.97975068 -289.19433594 494.73144531 C-289.17678306 496.28898941 -289.15939133 497.84653533 -289.1421814 499.40408325 C-289.11136884 502.13389165 -289.05432233 504.8584354 -288.98013306 507.58786011 C-288.88730228 514.87359934 -289.87897769 519.8508153 -293.3125 526.25 C-293.81330078 527.81041016 -293.81330078 527.81041016 -294.32421875 529.40234375 C-295.52233987 532.85463742 -297.20620971 535.70501362 -299.125 538.8125 C-299.79144531 539.90691406 -300.45789063 541.00132812 -301.14453125 542.12890625 C-303.29321018 545.22222961 -305.57808371 547.67170862 -308.3125 550.25 C-309.1375 551.095625 -309.9625 551.94125 -310.8125 552.8125 C-313.3125 555.25 -313.3125 555.25 -316 557.375 C-318.50403669 559.21561073 -318.50403669 559.21561073 -320.3125 562.25 C-321.3025 562.25 -322.2925 562.25 -323.3125 562.25 C-323.3125 562.91 -323.3125 563.57 -323.3125 564.25 C-327.3125 566.25 -331.3125 568.25 -335.3125 570.25 C-336.36695313 570.80042969 -337.42140625 571.35085938 -338.5078125 571.91796875 C-341.3125 573.25 -341.3125 573.25 -344.5625 573.75 C-345.47 573.915 -346.3775 574.08 -347.3125 574.25 C-347.9725 575.24 -348.6325 576.23 -349.3125 577.25 C-356.22823704 579.77968569 -364.04466484 579.63572035 -371.3125 579.625 C-372.40248291 579.62411377 -373.49246582 579.62322754 -374.61547852 579.62231445 C-384.28973166 579.48241664 -393.03984319 577.88129842 -402.3125 575.25 C-403.22386719 575.03472656 -404.13523437 574.81945313 -405.07421875 574.59765625 C-421.83448671 570.35910915 -438.77899298 559.73861249 -448.3125 545.25 C-448.3125 544.59 -448.3125 543.93 -448.3125 543.25 C-448.9725 543.25 -449.6325 543.25 -450.3125 543.25 C-457.13634908 528.35770043 -460.51856014 516.34145862 -455.3125 500.25 C-455.04566406 499.41210938 -454.77882813 498.57421875 -454.50390625 497.7109375 C-447.43127852 477.90757985 -429.57185265 465.00173208 -411.3125 456.25 C-410.57644531 455.87875 -409.84039063 455.5075 -409.08203125 455.125 C-395.37475552 448.99639768 -378.09792093 447.04956785 -363.1875 447.125 C-362.41535156 447.12113281 -361.64320313 447.11726563 -360.84765625 447.11328125 C-356.54837949 447.1206054 -352.551788 447.45589706 -348.3125 448.25 C-338.64097418 449.14170096 -330.59035023 446.75244639 -322.90625 440.84765625 C-317.6967988 435.62543679 -317.10196067 427.02098499 -317.03282583 420.00253713 C-317.03544286 419.2712647 -317.03805989 418.53999226 -317.04075623 417.78656006 C-317.03567098 416.98264725 -317.03058574 416.17873445 -317.0253464 415.35046065 C-317.01078215 412.67597353 -317.0101581 410.00167231 -317.00952148 407.32714844 C-317.00182156 405.39141298 -316.99324662 403.45568084 -316.98387051 401.51995277 C-316.96073164 396.24197699 -316.94967053 390.96403555 -316.94060087 385.68601942 C-316.92875058 380.06007235 -316.90545819 374.43417243 -316.8833313 368.80825806 C-316.84692259 359.19613836 -316.8171247 349.58401775 -316.79177856 339.97186279 C-316.75207643 325.01976875 -316.69682966 310.06775386 -316.63842773 295.11572266 C-316.61911493 290.13418595 -316.59986375 285.152649 -316.58061218 280.17111206 C-316.57584384 278.94112208 -316.57107549 277.71113211 -316.56616265 276.44386971 C-316.5326009 267.75377307 -316.50065903 259.06367145 -316.46955872 250.37356567 C-316.33927398 214.03625156 -316.19939966 177.69903667 -315.95740223 141.36226654 C-315.90604064 133.64345502 -315.86025812 125.92466675 -315.82343507 118.20577157 C-315.79544085 112.4566693 -315.75734152 106.70767251 -315.71493149 100.95866013 C-315.6995357 98.66962016 -315.68734664 96.38055583 -315.67874527 94.09148026 C-315.66668715 91.03008281 -315.64267525 87.96900971 -315.61547852 84.90771484 C-315.61488654 84.03480679 -315.61429457 83.16189873 -315.61368465 82.26253891 C-315.54030158 76.11026504 -314.91553969 70.37592739 -312.0625 64.8125 C-309.6425054 62.65179054 -307.48298102 62.53182054 -304.3125 62.25 C-304.3125 61.59 -304.3125 60.93 -304.3125 60.25 C-303.49072266 60.10304688 -303.49072266 60.10304688 -302.65234375 59.953125 C-297.5061352 58.98245802 -292.48408265 57.77590928 -287.4375 56.375 C-280.51594566 54.4885784 -273.55963906 53.04279037 -266.51733398 51.68457031 C-261.96533139 50.80102604 -257.48133461 49.82686737 -253 48.625 C-247.43721206 47.17179978 -241.86486417 46.47788564 -236.1640625 45.78125 C-232.35475097 45.25582772 -228.63716787 44.54203534 -224.875 43.75 C-219.87139955 42.70069123 -214.95964813 41.95752083 -209.875 41.4375 C-201.70151424 40.57556504 -193.91596867 38.44749759 -185.98266602 36.36108398 C-179.52364632 34.69848351 -173.55124008 33.63441542 -166.87890625 33.39453125 C-163.18379275 33.18643506 -159.87502009 32.22159639 -156.3125 31.25 C-154.9925 31.25 -153.6725 31.25 -152.3125 31.25 C-152.3125 30.59 -152.3125 29.93 -152.3125 29.25 C-151.45253418 29.13724731 -151.45253418 29.13724731 -150.57519531 29.0222168 C-136.27343719 27.14001123 -136.27343719 27.14001123 -122.2109375 23.9921875 C-118.22652245 22.97191949 -114.2007528 22.25386028 -110.15600586 21.515625 C-103.61346349 20.31703796 -97.08675462 19.04431468 -90.5625 17.75 C-89.53358643 17.54842285 -88.50467285 17.3468457 -87.44458008 17.13916016 C-82.37409372 16.12984598 -77.36179885 15.02601507 -72.359375 13.71875 C-68.22832211 12.65796966 -64.15614889 11.87958648 -59.93359375 11.28125 C-51.74242106 10.10010071 -43.84981501 7.93897253 -35.86132812 5.81640625 C-28.65797016 3.95050029 -21.5593271 2.58683098 -14.17358398 1.66210938 C-2.76479577 0.01879215 -2.76479577 0.01879215 0 0 Z " fill="#F1F1F5" transform="translate(1299.3125,565.75)"/>
<path d="M0 0 C2 1 2 1 2 1 Z " fill="#FFFFFF" transform="translate(1414,1250)"/>
</svg>
